<mxfile host="app.diagrams.net" agent="Mozilla/5.0 (Windows NT 10.0; Win64; x64) AppleWebKit/537.36 (KHTML, like Gecko) Chrome/130.0.0.0 Safari/537.36" version="24.8.3">
  <diagram name="Seite-1" id="oGQDlFDuFP4dKbfOOZLw">
    <mxGraphModel grid="1" page="1" gridSize="10" guides="1" tooltips="1" connect="1" arrows="1" fold="1" pageScale="1" pageWidth="827" pageHeight="1169" math="0" shadow="0">
      <root>
        <mxCell id="0" />
        <mxCell id="1" parent="0" />
        <mxCell id="LIgevyuc3B_988rilVwD-1" value="" style="ellipse;" vertex="1" parent="1">
          <mxGeometry x="384" y="20" width="30" height="30" as="geometry" />
        </mxCell>
        <mxCell id="LIgevyuc3B_988rilVwD-2" value="" style="edgeStyle=orthogonalEdgeStyle;rounded=0;orthogonalLoop=1;jettySize=auto;html=1;" edge="1" parent="1" source="LIgevyuc3B_988rilVwD-3" target="LIgevyuc3B_988rilVwD-6">
          <mxGeometry relative="1" as="geometry" />
        </mxCell>
        <mxCell id="LIgevyuc3B_988rilVwD-3" value="User executes the application" style="rounded=1;whiteSpace=wrap;html=1;" vertex="1" parent="1">
          <mxGeometry x="339" y="80" width="120" height="60" as="geometry" />
        </mxCell>
        <mxCell id="LIgevyuc3B_988rilVwD-4" value="" style="endArrow=classic;html=1;rounded=0;exitX=0.5;exitY=1;exitDx=0;exitDy=0;entryX=0.5;entryY=0;entryDx=0;entryDy=0;" edge="1" parent="1" source="LIgevyuc3B_988rilVwD-1" target="LIgevyuc3B_988rilVwD-3">
          <mxGeometry width="50" height="50" relative="1" as="geometry">
            <mxPoint x="380" y="270" as="sourcePoint" />
            <mxPoint x="430" y="220" as="targetPoint" />
          </mxGeometry>
        </mxCell>
        <mxCell id="LIgevyuc3B_988rilVwD-5" value="" style="edgeStyle=orthogonalEdgeStyle;rounded=0;orthogonalLoop=1;jettySize=auto;html=1;" edge="1" parent="1" source="LIgevyuc3B_988rilVwD-6" target="LIgevyuc3B_988rilVwD-19">
          <mxGeometry relative="1" as="geometry" />
        </mxCell>
        <mxCell id="LIgevyuc3B_988rilVwD-6" value="Mindfullness" style="whiteSpace=wrap;html=1;rounded=1;" vertex="1" parent="1">
          <mxGeometry x="339" y="220" width="120" height="60" as="geometry" />
        </mxCell>
        <mxCell id="LIgevyuc3B_988rilVwD-7" value="" style="edgeStyle=orthogonalEdgeStyle;rounded=0;orthogonalLoop=1;jettySize=auto;html=1;" edge="1" parent="1" target="LIgevyuc3B_988rilVwD-12">
          <mxGeometry relative="1" as="geometry">
            <mxPoint x="399" y="510" as="sourcePoint" />
          </mxGeometry>
        </mxCell>
        <mxCell id="LIgevyuc3B_988rilVwD-8" value="Add cognitive exercise" style="whiteSpace=wrap;html=1;rounded=1;" vertex="1" parent="1">
          <mxGeometry x="339" y="450" width="120" height="60" as="geometry" />
        </mxCell>
        <mxCell id="LIgevyuc3B_988rilVwD-9" value="" style="edgeStyle=orthogonalEdgeStyle;rounded=0;orthogonalLoop=1;jettySize=auto;html=1;entryX=0;entryY=0.5;entryDx=0;entryDy=0;" edge="1" parent="1" source="LIgevyuc3B_988rilVwD-12" target="LIgevyuc3B_988rilVwD-25">
          <mxGeometry relative="1" as="geometry">
            <mxPoint x="590" y="600" as="targetPoint" />
          </mxGeometry>
        </mxCell>
        <mxCell id="LIgevyuc3B_988rilVwD-10" value="" style="edgeStyle=orthogonalEdgeStyle;rounded=0;orthogonalLoop=1;jettySize=auto;html=1;" edge="1" parent="1" source="LIgevyuc3B_988rilVwD-12" target="LIgevyuc3B_988rilVwD-14">
          <mxGeometry relative="1" as="geometry" />
        </mxCell>
        <mxCell id="LIgevyuc3B_988rilVwD-11" style="edgeStyle=orthogonalEdgeStyle;rounded=0;orthogonalLoop=1;jettySize=auto;html=1;exitX=0;exitY=0.5;exitDx=0;exitDy=0;entryX=0;entryY=0.5;entryDx=0;entryDy=0;" edge="1" parent="1" source="LIgevyuc3B_988rilVwD-12" target="LIgevyuc3B_988rilVwD-6">
          <mxGeometry relative="1" as="geometry">
            <mxPoint x="300" y="220" as="targetPoint" />
          </mxGeometry>
        </mxCell>
        <mxCell id="LIgevyuc3B_988rilVwD-12" value="View meditation or add new meditation?" style="rhombus;whiteSpace=wrap;html=1;rounded=1;" vertex="1" parent="1">
          <mxGeometry x="359" y="560" width="80" height="80" as="geometry" />
        </mxCell>
        <mxCell id="LIgevyuc3B_988rilVwD-13" style="edgeStyle=orthogonalEdgeStyle;rounded=0;orthogonalLoop=1;jettySize=auto;html=1;exitX=1;exitY=0.5;exitDx=0;exitDy=0;" edge="1" parent="1" source="LIgevyuc3B_988rilVwD-14">
          <mxGeometry relative="1" as="geometry">
            <mxPoint x="400" y="540" as="targetPoint" />
            <Array as="points">
              <mxPoint x="260" y="760" />
              <mxPoint x="260" y="540" />
            </Array>
          </mxGeometry>
        </mxCell>
        <mxCell id="LIgevyuc3B_988rilVwD-14" value="Fill in meditation exercises" style="whiteSpace=wrap;html=1;rounded=1;" vertex="1" parent="1">
          <mxGeometry x="339" y="730" width="120" height="60" as="geometry" />
        </mxCell>
        <mxCell id="LIgevyuc3B_988rilVwD-15" value="View available meditation(&amp;nbsp;&lt;span style=&quot;text-wrap-mode: wrap;&quot;&gt;User presses on one of the Meal buttons)&lt;/span&gt;" style="text;html=1;align=center;verticalAlign=middle;resizable=0;points=[];autosize=1;strokeColor=none;fillColor=none;" vertex="1" parent="1">
          <mxGeometry x="325" y="610" width="390" height="30" as="geometry" />
        </mxCell>
        <mxCell id="LIgevyuc3B_988rilVwD-16" value="Add new meditation" style="text;html=1;align=center;verticalAlign=middle;resizable=0;points=[];autosize=1;strokeColor=none;fillColor=none;" vertex="1" parent="1">
          <mxGeometry x="395" y="670" width="130" height="30" as="geometry" />
        </mxCell>
        <mxCell id="LIgevyuc3B_988rilVwD-17" value="" style="edgeStyle=orthogonalEdgeStyle;rounded=0;orthogonalLoop=1;jettySize=auto;html=1;" edge="1" parent="1" source="LIgevyuc3B_988rilVwD-19" target="LIgevyuc3B_988rilVwD-21">
          <mxGeometry relative="1" as="geometry" />
        </mxCell>
        <mxCell id="LIgevyuc3B_988rilVwD-18" value="" style="edgeStyle=orthogonalEdgeStyle;rounded=0;orthogonalLoop=1;jettySize=auto;html=1;" edge="1" parent="1" source="LIgevyuc3B_988rilVwD-19" target="LIgevyuc3B_988rilVwD-8">
          <mxGeometry relative="1" as="geometry" />
        </mxCell>
        <mxCell id="LIgevyuc3B_988rilVwD-19" value="New cognitive exercise or previous cogntive exercise" style="rhombus;whiteSpace=wrap;html=1;rounded=1;" vertex="1" parent="1">
          <mxGeometry x="359" y="310" width="81" height="80" as="geometry" />
        </mxCell>
        <mxCell id="LIgevyuc3B_988rilVwD-20" value="" style="edgeStyle=orthogonalEdgeStyle;rounded=0;orthogonalLoop=1;jettySize=auto;html=1;" edge="1" parent="1" source="LIgevyuc3B_988rilVwD-21" target="LIgevyuc3B_988rilVwD-33">
          <mxGeometry relative="1" as="geometry" />
        </mxCell>
        <mxCell id="LIgevyuc3B_988rilVwD-21" value="Meditation Tab of the Selected Cognitive Exercise" style="whiteSpace=wrap;html=1;rounded=1;" vertex="1" parent="1">
          <mxGeometry x="550" y="320" width="120" height="60" as="geometry" />
        </mxCell>
        <mxCell id="LIgevyuc3B_988rilVwD-22" value="prev Mealplan(&lt;span style=&quot;text-wrap-mode: wrap;&quot;&gt;User presses on one of the Mealplans&lt;/span&gt;)" style="text;html=1;align=center;verticalAlign=middle;resizable=0;points=[];autosize=1;strokeColor=none;fillColor=none;" vertex="1" parent="1">
          <mxGeometry x="339" y="300" width="310" height="30" as="geometry" />
        </mxCell>
        <mxCell id="LIgevyuc3B_988rilVwD-23" value="new cognitive exercise" style="text;html=1;align=center;verticalAlign=middle;resizable=0;points=[];autosize=1;strokeColor=none;fillColor=none;" vertex="1" parent="1">
          <mxGeometry x="400" y="398" width="140" height="30" as="geometry" />
        </mxCell>
        <mxCell id="LIgevyuc3B_988rilVwD-24" style="edgeStyle=orthogonalEdgeStyle;rounded=0;orthogonalLoop=1;jettySize=auto;html=1;exitX=0.5;exitY=0;exitDx=0;exitDy=0;" edge="1" parent="1" source="LIgevyuc3B_988rilVwD-25">
          <mxGeometry relative="1" as="geometry">
            <mxPoint x="400" y="540" as="targetPoint" />
            <Array as="points">
              <mxPoint x="670" y="540" />
            </Array>
          </mxGeometry>
        </mxCell>
        <mxCell id="LIgevyuc3B_988rilVwD-25" value="View and change details if needed" style="whiteSpace=wrap;html=1;rounded=1;" vertex="1" parent="1">
          <mxGeometry x="630" y="570" width="120" height="60" as="geometry" />
        </mxCell>
        <mxCell id="LIgevyuc3B_988rilVwD-26" value="View and change details if needed" style="whiteSpace=wrap;html=1;rounded=1;" vertex="1" parent="1">
          <mxGeometry x="1050" y="320" width="120" height="60" as="geometry" />
        </mxCell>
        <mxCell id="LIgevyuc3B_988rilVwD-27" value="&quot;Confirm&quot; - Button pressed" style="text;html=1;align=center;verticalAlign=middle;resizable=0;points=[];autosize=1;strokeColor=none;fillColor=none;" vertex="1" parent="1">
          <mxGeometry x="490" y="510" width="170" height="30" as="geometry" />
        </mxCell>
        <mxCell id="LIgevyuc3B_988rilVwD-28" value="Select &quot;Haelth&quot; - Icon at the top" style="text;html=1;align=center;verticalAlign=middle;resizable=0;points=[];autosize=1;strokeColor=none;fillColor=none;" vertex="1" parent="1">
          <mxGeometry x="130" y="390" width="190" height="30" as="geometry" />
        </mxCell>
        <mxCell id="LIgevyuc3B_988rilVwD-29" value="&lt;span style=&quot;text-wrap-mode: wrap;&quot;&gt;User presses on one of the meditation buttons&lt;/span&gt;" style="text;html=1;align=center;verticalAlign=middle;resizable=0;points=[];autosize=1;strokeColor=none;fillColor=none;" vertex="1" parent="1">
          <mxGeometry x="822" y="390" width="270" height="30" as="geometry" />
        </mxCell>
        <mxCell id="LIgevyuc3B_988rilVwD-30" value="&quot;Confirm&quot; - Button pressed" style="text;html=1;align=center;verticalAlign=middle;resizable=0;points=[];autosize=1;strokeColor=none;fillColor=none;" vertex="1" parent="1">
          <mxGeometry x="90" y="630" width="170" height="30" as="geometry" />
        </mxCell>
        <mxCell id="LIgevyuc3B_988rilVwD-31" style="edgeStyle=orthogonalEdgeStyle;rounded=0;orthogonalLoop=1;jettySize=auto;html=1;exitX=1;exitY=0.5;exitDx=0;exitDy=0;entryX=0;entryY=0.5;entryDx=0;entryDy=0;" edge="1" parent="1" source="LIgevyuc3B_988rilVwD-33" target="LIgevyuc3B_988rilVwD-26">
          <mxGeometry relative="1" as="geometry" />
        </mxCell>
        <mxCell id="LIgevyuc3B_988rilVwD-32" style="edgeStyle=orthogonalEdgeStyle;rounded=0;orthogonalLoop=1;jettySize=auto;html=1;exitX=0.5;exitY=0;exitDx=0;exitDy=0;entryX=1;entryY=0.5;entryDx=0;entryDy=0;" edge="1" parent="1" source="LIgevyuc3B_988rilVwD-33" target="LIgevyuc3B_988rilVwD-6">
          <mxGeometry relative="1" as="geometry" />
        </mxCell>
        <mxCell id="LIgevyuc3B_988rilVwD-33" value="" style="rhombus;whiteSpace=wrap;html=1;rounded=1;" vertex="1" parent="1">
          <mxGeometry x="770" y="310" width="80" height="80" as="geometry" />
        </mxCell>
        <mxCell id="LIgevyuc3B_988rilVwD-34" value="Select &quot;Haelth&quot; - Icon at the top" style="text;html=1;align=center;verticalAlign=middle;resizable=0;points=[];autosize=1;strokeColor=none;fillColor=none;" vertex="1" parent="1">
          <mxGeometry x="515" y="208" width="190" height="30" as="geometry" />
        </mxCell>
      </root>
    </mxGraphModel>
  </diagram>
</mxfile>
